<svg id="Layer_1" data-name="Layer 1" xmlns="http://www.w3.org/2000/svg" viewBox="0 0 433.13 50.3"><defs><style>.cls-1,.cls-13,.cls-5{fill:#b4e9fc;}.cls-1,.cls-10,.cls-11,.cls-12,.cls-2,.cls-3,.cls-4,.cls-5,.cls-6,.cls-7,.cls-8,.cls-9{stroke:#000;}.cls-1,.cls-10,.cls-2,.cls-3,.cls-4,.cls-5,.cls-6,.cls-7,.cls-8,.cls-9{stroke-miterlimit:10;}.cls-1{stroke-width:1px;}.cls-10,.cls-11,.cls-2,.cls-3,.cls-4,.cls-6,.cls-7,.cls-8{fill:none;}.cls-2,.cls-3,.cls-4{stroke-width:1px;}.cls-3{stroke-dasharray:2.03 2.03;}.cls-4{stroke-dasharray:2.12 2.12;}.cls-5{stroke-width:1.01px;}.cls-6,.cls-7,.cls-8{stroke-width:1px;}.cls-7{stroke-dasharray:2.03 2.03;}.cls-8{stroke-dasharray:2.07 2.07;}.cls-9{fill:#ff9e19;}.cls-11{stroke-width:1.13px;}.cls-12{fill:#ffb900;stroke-width:1.02px;}</style></defs><title>Artboard 1</title><rect class="cls-1" x="118.04" y="0.5" width="72.93" height="49.42"/><polyline class="cls-2" points="190.98 48.91 190.98 49.91 189.98 49.91"/><line class="cls-3" x1="187.95" y1="49.92" x2="120.02" y2="49.92"/><polyline class="cls-2" points="119.01 49.91 118.01 49.91 118.01 48.91"/><line class="cls-4" x1="118.01" y1="46.8" x2="118.01" y2="30.93"/><polyline class="cls-2" points="118.01 29.88 118.01 28.87 119.01 28.87"/><line class="cls-3" x1="121.04" y1="28.87" x2="188.96" y2="28.87"/><polyline class="cls-2" points="189.98 28.87 190.98 28.87 190.98 29.88"/><line class="cls-4" x1="190.98" y1="31.99" x2="190.98" y2="47.86"/><rect class="cls-5" x="0.5" y="0.5" width="67" height="49.43"/><path d="M23.78,17.1h1L26,21.44,27.6,17.1h.84l1.3,4.34,1.52-4.34h1l-2.09,5.46h-.91l-1.28-4.11-1.52,4.11h-.91Z"/><path d="M35.5,17a2.14,2.14,0,0,1,2.16,2.41l-.58.17L33.91,20a1.79,1.79,0,0,0,1.79,1.87,2.89,2.89,0,0,0,1.69-.68l.28.72a3.11,3.11,0,0,1-2.07.78,2.56,2.56,0,0,1-2.67-2.72A2.7,2.7,0,0,1,35.5,17Zm-1.58,2.28,2.71-.35s-.11-1.15-1.19-1.15A1.58,1.58,0,0,0,33.92,19.24Z"/><path d="M39.11,14.1l.94-.17v3.73A2,2,0,0,1,41.6,17a2.4,2.4,0,0,1,2.33,2.66,2.86,2.86,0,0,1-3,3,7.9,7.9,0,0,1-1.81-.24ZM40,18.49v3.25a3.65,3.65,0,0,0,.92.12,1.94,1.94,0,0,0,2-2.18c0-1.19-.6-1.91-1.46-1.91A2.06,2.06,0,0,0,40,18.49Z"/><path d="M14.88,28.5l.94-.17v3.73a2,2,0,0,1,1.56-.71A2.4,2.4,0,0,1,19.7,34a2.86,2.86,0,0,1-3,3,7.88,7.88,0,0,1-1.81-.24Zm.94,4.39v3.25a3.64,3.64,0,0,0,.92.12,1.94,1.94,0,0,0,2-2.18c0-1.19-.6-1.91-1.46-1.91A2.06,2.06,0,0,0,15.81,32.89Z"/><path d="M21.13,31.59l.94-.17v1.07a2,2,0,0,1,1.57-1.13.92.92,0,0,1,.47.11l-.24,1a1.45,1.45,0,0,0-.46-.1c-.62,0-1.13.73-1.34,1.1V36.9h-.94Z"/><path d="M27.37,31.36A2.63,2.63,0,0,1,30,34.09a2.81,2.81,0,0,1-2.7,3,2.68,2.68,0,0,1-2.64-2.82A2.73,2.73,0,0,1,27.37,31.36Zm0,4.87a1.75,1.75,0,0,0,1.68-2c0-1-.48-2.08-1.69-2.08a1.72,1.72,0,0,0-1.68,1.94C25.67,35.17,26.18,36.23,27.36,36.23Z"/><path d="M30.8,31.5h1l1.28,4.34,1.55-4.34h.84l1.3,4.34,1.52-4.34h1L37.16,37h-.91L35,32.85,33.44,37h-.91Z"/><path d="M40.15,35.74a2.81,2.81,0,0,0,1.55.53c.67,0,1-.29,1-.71,0-1.15-2.65-1-2.65-2.71,0-.82.59-1.49,2-1.49a3.57,3.57,0,0,1,1.5.3l-.25.79a3.49,3.49,0,0,0-1.32-.31c-.65,0-.95.26-.95.64,0,1.1,2.65.92,2.65,2.71,0,1-.76,1.56-2,1.56a3,3,0,0,1-1.73-.48Z"/><path d="M47.29,31.36a2.14,2.14,0,0,1,2.16,2.41l-.58.17-3.18.42a1.79,1.79,0,0,0,1.79,1.87,2.89,2.89,0,0,0,1.69-.68l.28.72a3.11,3.11,0,0,1-2.07.78,2.56,2.56,0,0,1-2.67-2.72A2.7,2.7,0,0,1,47.29,31.36Zm-1.58,2.28,2.71-.35s-.11-1.15-1.19-1.15A1.58,1.58,0,0,0,45.71,33.64Z"/><path d="M50.89,31.59l.94-.17v1.07a2,2,0,0,1,1.57-1.13.92.92,0,0,1,.47.11l-.24,1a1.45,1.45,0,0,0-.46-.1c-.62,0-1.13.73-1.34,1.1V36.9h-.94Z"/><polyline class="cls-6" points="190.98 20.13 190.98 21.13 189.98 21.13"/><line class="cls-7" x1="187.96" y1="21.13" x2="120.05" y2="21.13"/><polyline class="cls-6" points="119.03 21.13 118.03 21.13 118.03 20.13"/><line class="cls-8" x1="118.03" y1="18.06" x2="118.03" y2="2.54"/><polyline class="cls-6" points="118.03 1.5 118.03 0.5 119.03 0.5"/><line class="cls-7" x1="121.06" y1="0.5" x2="188.97" y2="0.5"/><polyline class="cls-6" points="189.98 0.5 190.98 0.5 190.98 1.5"/><line class="cls-8" x1="190.98" y1="3.57" x2="190.98" y2="19.09"/><path d="M131.63,8.34h1l4.67,6.52V8.34h1v8h-1l-4.67-6.43v6.43h-1Z"/><path d="M142.46,10.79a2.63,2.63,0,0,1,2.65,2.73,2.81,2.81,0,0,1-2.7,3,2.68,2.68,0,0,1-2.64-2.82A2.73,2.73,0,0,1,142.46,10.79Zm0,4.87a1.75,1.75,0,0,0,1.68-2c0-1-.48-2.08-1.69-2.08a1.72,1.72,0,0,0-1.68,1.94C140.76,14.61,141.27,15.66,142.45,15.66Z"/><path d="M149.12,10.79a2.7,2.7,0,0,1,1,.19v-3l.94-.17v6.9a9.24,9.24,0,0,0,.24,1.67l-.92.08s-.11-.49-.17-.86a2,2,0,0,1-1.75.92,2.42,2.42,0,0,1-2.31-2.66A2.86,2.86,0,0,1,149.12,10.79Zm1,3.89V12.35c0-.6-.52-.77-1-.77a1.93,1.93,0,0,0-2,2.17c0,1.2.62,1.91,1.44,1.91A2,2,0,0,0,150.16,14.68Z"/><path d="M155.17,10.79a2.14,2.14,0,0,1,2.16,2.41l-.58.17-3.18.42a1.79,1.79,0,0,0,1.79,1.87,2.89,2.89,0,0,0,1.69-.68l.28.72a3.11,3.11,0,0,1-2.08.78,2.56,2.56,0,0,1-2.67-2.72A2.7,2.7,0,0,1,155.17,10.79Zm-1.58,2.28,2.71-.35s-.11-1.15-1.19-1.15A1.58,1.58,0,0,0,153.59,13.07Z"/><path d="M158.79,8.34h2.32c2.06,0,2.85,1.09,2.85,2.36a2.55,2.55,0,0,1-2.85,2.57h-1.33v3.07h-1Zm2.13,4.1c1.36,0,2-.62,2-1.65s-.52-1.62-2-1.62h-1.15v3.27Z"/><path d="M167.35,10.79A2.63,2.63,0,0,1,170,13.53a2.81,2.81,0,0,1-2.7,3,2.68,2.68,0,0,1-2.64-2.82A2.73,2.73,0,0,1,167.35,10.79Zm0,4.87a1.75,1.75,0,0,0,1.68-2c0-1-.48-2.08-1.69-2.08a1.72,1.72,0,0,0-1.68,1.94C165.65,14.61,166.16,15.66,167.34,15.66Z"/><path d="M171.42,11l.94-.17v1.07a2,2,0,0,1,1.57-1.13.92.92,0,0,1,.47.11l-.24,1a1.45,1.45,0,0,0-.46-.1c-.62,0-1.13.73-1.34,1.1v3.42h-.94Z"/><path d="M175.69,11.69h-.77v-.5l.77-.31V9.68l.94-.23v1.49h1.75v.76h-1.75v3c0,.72.25,1,.66,1a2.12,2.12,0,0,0,1.14-.49l.23.76a2.67,2.67,0,0,1-1.56.55c-.85,0-1.4-.47-1.4-1.57Z"/><rect class="cls-9" x="241.83" y="0.5" width="67" height="49.29"/><path d="M268.16,13.86a5.25,5.25,0,0,1,2.65.68l-.4.89a4.11,4.11,0,0,0-2.33-.72A3.1,3.1,0,0,0,264.92,18a3.19,3.19,0,0,0,3.19,3.31,4.23,4.23,0,0,0,2.39-.8l.41.74a4.9,4.9,0,0,1-2.88.91,4,4,0,0,1-4.16-4.09A4.09,4.09,0,0,1,268.16,13.86Z"/><path d="M272.51,14h1l4.67,6.52V14h1v8h-1l-4.67-6.43V22h-1Z"/><path d="M283.28,18l-2.67-4h1.16l2.1,3.23L286,14h1.13l-2.67,4,2.67,4h-1.16l-2.1-3.23L281.73,22H280.6Z"/><path d="M254.82,28.4h1.42L258.65,35l2.45-6.61h1.42l.29,8h-1l-.25-6.8L259,36.4h-.74l-2.57-6.88-.22,6.88h-1Z"/><path d="M267.41,33.11v-.2c0-.64,0-1.24-.89-1.24a3.19,3.19,0,0,0-1.69.6l-.29-.76a4.08,4.08,0,0,1,2.24-.66c1.18,0,1.56.5,1.56,1.72V35a.64.64,0,0,0,.6.72l-.31.76a1.16,1.16,0,0,1-1.16-.88,2.18,2.18,0,0,1-1.79.94,1.36,1.36,0,0,1-1.51-1.36C264.17,34.07,265.36,33.38,267.41,33.11Zm0,1.68v-1c-1.52.25-2.24.64-2.24,1.33,0,.42.31.6.71.6A2.16,2.16,0,0,0,267.41,34.79Z"/><path d="M270.25,31.09l.94-.17V32a3.34,3.34,0,0,1,2.23-1.12c.8,0,1.42.46,1.42,1.62V36.4h-.94V32.74c0-.8-.32-1.06-.73-1.06a3.78,3.78,0,0,0-2,1.15V36.4h-.94Z"/><path d="M279.36,33.11v-.2c0-.64,0-1.24-.89-1.24a3.19,3.19,0,0,0-1.69.6l-.29-.76a4.08,4.08,0,0,1,2.24-.66c1.17,0,1.56.5,1.56,1.72V35a.64.64,0,0,0,.6.72l-.31.76a1.16,1.16,0,0,1-1.16-.88,2.18,2.18,0,0,1-1.79.94,1.36,1.36,0,0,1-1.51-1.36C276.12,34.07,277.31,33.38,279.36,33.11Zm0,1.68v-1c-1.52.25-2.24.64-2.24,1.33,0,.42.31.6.71.6A2.16,2.16,0,0,0,279.36,34.79Z"/><path d="M283,34.47a1.9,1.9,0,0,1-1-1.73,2,2,0,0,1,2.23-1.88c.62,0,1,.23,1.55.23h.58A2.59,2.59,0,0,0,287,31l.08.84h-.68l-.44,0a1.58,1.58,0,0,1,.41,1.06,2.07,2.07,0,0,1-2.29,1.87,2.43,2.43,0,0,1-.43,0c-.25.18-.48.35-.48.5s.56.35,1.58.58,2.09.52,2.09,1.5-1.34,2-2.88,2c-1.16,0-2.3-.48-2.3-1.44s.79-1.33,1.4-1.64c-.53-.16-.9-.37-.9-.73S282.61,34.7,283,34.47Zm1,4.05c1,0,1.85-.54,1.85-1.14s-.62-.72-1.44-.9l-.6-.12c-.64.35-1.32.71-1.32,1.31S283.4,38.52,284,38.52Zm1.38-5.64a1.26,1.26,0,0,0-1.27-1.31,1.17,1.17,0,0,0-1.24,1.22A1.16,1.16,0,0,0,284.17,34,1.11,1.11,0,0,0,285.42,32.89Z"/><path d="M290.46,30.86a2.14,2.14,0,0,1,2.16,2.41l-.58.17-3.18.42a1.79,1.79,0,0,0,1.79,1.87,2.89,2.89,0,0,0,1.69-.68l.28.72a3.11,3.11,0,0,1-2.08.78,2.56,2.56,0,0,1-2.67-2.72A2.7,2.7,0,0,1,290.46,30.86Zm-1.58,2.28,2.71-.35s-.11-1.15-1.19-1.15A1.58,1.58,0,0,0,288.88,33.14Z"/><path d="M294.06,31.09l.94-.17V32a2,2,0,0,1,1.57-1.13A.92.92,0,0,1,297,31l-.24,1a1.45,1.45,0,0,0-.46-.1c-.62,0-1.13.73-1.34,1.1V36.4h-.94Z"/><rect class="cls-9" x="359.37" y="0.5" width="73.26" height="49.29"/><path d="M388.82,14.86a5.26,5.26,0,0,1,2.65.68l-.4.89a4.11,4.11,0,0,0-2.33-.72A3.1,3.1,0,0,0,385.58,19a3.19,3.19,0,0,0,3.19,3.31,4.23,4.23,0,0,0,2.39-.8l.41.74a4.9,4.9,0,0,1-2.88.91,4,4,0,0,1-4.16-4.09A4.09,4.09,0,0,1,388.82,14.86Z"/><path d="M393.18,15h1l4.67,6.52V15h1v8h-1l-4.67-6.43V23h-1Z"/><path d="M403.94,19l-2.67-4h1.16l2.1,3.23L406.64,15h1.13l-2.67,4,2.67,4H406.6l-2.1-3.23L402.39,23h-1.13Z"/><path d="M373.41,29.34h.95l3.07,8.06h-1L375.5,35h-3.26l-.9,2.41h-1Zm-.86,4.82h2.64l-1.32-3.53Z"/><path d="M378.78,29.4h2.31c2.06,0,2.86,1.09,2.86,2.36a2.55,2.55,0,0,1-2.86,2.57h-1.33V37.4h-1Zm2.13,4.1c1.36,0,2-.62,2-1.65s-.52-1.62-2-1.62h-1.15V33.5Z"/><path d="M385.55,29.4h1v8h-1Z"/><path d="M391.43,35.95a3.78,3.78,0,0,0,2.09.72c.86,0,1.6-.4,1.6-1.16,0-1.82-3.8-1.71-3.8-4.16,0-1.16.94-2.09,2.6-2.09a6.74,6.74,0,0,1,2,.36l-.25.92a5,5,0,0,0-1.82-.41c-.89,0-1.57.37-1.57,1.1,0,1.86,3.8,1.66,3.8,4.2,0,1.39-1.19,2.11-2.63,2.11a4.23,4.23,0,0,1-2.31-.67Z"/><path d="M399.83,31.86A2.14,2.14,0,0,1,402,34.27l-.58.17-3.18.42A1.79,1.79,0,0,0,400,36.73a2.89,2.89,0,0,0,1.69-.68l.28.72a3.11,3.11,0,0,1-2.07.78,2.56,2.56,0,0,1-2.67-2.72A2.7,2.7,0,0,1,399.83,31.86Zm-1.58,2.28,2.71-.35a1.24,1.24,0,0,0-1.19-1.15A1.58,1.58,0,0,0,398.24,34.14Z"/><path d="M403.43,32.09l.94-.17V33a2,2,0,0,1,1.57-1.13.92.92,0,0,1,.47.11l-.24,1a1.45,1.45,0,0,0-.46-.1c-.62,0-1.13.73-1.34,1.1V37.4h-.94Z"/><path d="M406.76,32h1l1.43,4.23,1.7-4.23h1l-2.28,5.46h-.89Z"/><path d="M415.1,31.86a2.14,2.14,0,0,1,2.16,2.41l-.58.17-3.18.42a1.79,1.79,0,0,0,1.79,1.87A2.89,2.89,0,0,0,417,36l.28.72a3.11,3.11,0,0,1-2.08.78,2.56,2.56,0,0,1-2.67-2.72A2.7,2.7,0,0,1,415.1,31.86Zm-1.58,2.28,2.71-.35s-.11-1.15-1.19-1.15A1.58,1.58,0,0,0,413.52,34.14Z"/><path d="M418.7,32.09l.94-.17V33a2,2,0,0,1,1.57-1.13.92.92,0,0,1,.47.11l-.24,1a1.45,1.45,0,0,0-.46-.1c-.62,0-1.13.73-1.34,1.1V37.4h-.94Z"/><path d="M136.94,41.67a2.81,2.81,0,0,0,1.55.53c.67,0,1-.29,1-.71,0-1.15-2.65-1-2.65-2.71,0-.82.59-1.49,2-1.49a3.57,3.57,0,0,1,1.5.3l-.25.79a3.49,3.49,0,0,0-1.32-.31c-.65,0-.95.26-.95.64,0,1.1,2.65.92,2.65,2.71,0,1-.76,1.56-2,1.56a3,3,0,0,1-1.73-.48Z"/><path d="M144.08,37.29a2.14,2.14,0,0,1,2.16,2.41l-.58.17-3.18.42a1.79,1.79,0,0,0,1.79,1.87,2.89,2.89,0,0,0,1.69-.68l.28.72a3.11,3.11,0,0,1-2.07.78,2.56,2.56,0,0,1-2.67-2.72A2.7,2.7,0,0,1,144.08,37.29Zm-1.58,2.28,2.71-.35s-.11-1.15-1.19-1.15A1.58,1.58,0,0,0,142.49,39.57Z"/><path d="M147.68,37.52l.94-.17v1.07a2,2,0,0,1,1.57-1.13.92.92,0,0,1,.47.11l-.24,1a1.45,1.45,0,0,0-.46-.1c-.62,0-1.13.73-1.34,1.1v3.42h-.94Z"/><path d="M151,37.44h1l1.43,4.23,1.7-4.23h1l-2.28,5.46h-.89Z"/><path d="M157,35.42a.65.65,0,1,1,.65.65A.64.64,0,0,1,157,35.42Zm.17,2h.94v5.4h-.94Z"/><path d="M162.32,37.29a2.65,2.65,0,0,1,1.76.59l-.42.73a2.27,2.27,0,0,0-1.4-.5,1.83,1.83,0,0,0-1.71,2,1.82,1.82,0,0,0,1.75,2,2.27,2.27,0,0,0,1.46-.58l.32.7a2.71,2.71,0,0,1-4.52-2.09A2.77,2.77,0,0,1,162.32,37.29Z"/><path d="M167.55,37.29a2.14,2.14,0,0,1,2.16,2.41l-.58.17-3.18.42a1.79,1.79,0,0,0,1.79,1.87,2.89,2.89,0,0,0,1.69-.68l.28.72a3.11,3.11,0,0,1-2.07.78A2.56,2.56,0,0,1,165,40.26,2.7,2.7,0,0,1,167.55,37.29ZM166,39.57l2.71-.35a1.24,1.24,0,0,0-1.19-1.15A1.58,1.58,0,0,0,166,39.57Z"/><line class="cls-10" x1="314.36" y1="25.33" x2="354.42" y2="25.59"/><polygon points="315.43 29.07 308.98 25.29 315.48 21.59 315.43 29.07"/><polygon points="353.3 29.32 359.8 25.62 353.35 21.84 353.3 29.32"/><g id="shackle"><path id="svg_1" data-name="svg 1" class="cls-11" d="M204.94,28.19l.93-3.79A3.15,3.15,0,0,1,212,25.92l-.93,3.79"/></g><rect class="cls-12" x="203.11" y="27.7" width="8.49" height="7.66" rx="0.16" ry="0.16" transform="translate(13.61 -48.79) rotate(13.87)"/><g id="shackle-2" data-name="shackle"><path id="svg_1-2" data-name="svg 1" class="cls-11" d="M332.43,27.56l.93-3.79a3.15,3.15,0,1,1,6.12,1.51l-.93,3.79"/></g><rect class="cls-12" x="330.6" y="27.07" width="8.49" height="7.66" rx="0.16" ry="0.16" transform="translate(17.17 -79.38) rotate(13.87)"/><g id="shackle-3" data-name="shackle"><path id="svg_1-3" data-name="svg 1" class="cls-11" d="M90.89,27.82,91.83,24a3.15,3.15,0,0,1,6.12,1.51L97,29.33"/></g><rect class="cls-12" x="89.07" y="27.33" width="8.49" height="7.66" rx="0.16" ry="0.16" transform="translate(10.19 -21.46) rotate(13.87)"/><rect class="cls-13" x="117.54" y="21.69" width="2.69" height="6.57"/><rect class="cls-13" x="188.83" y="21.56" width="2.69" height="6.73"/><line class="cls-10" x1="72.67" y1="25.05" x2="236.22" y2="25.69"/><polygon points="73.75 28.79 67.29 25.03 73.78 21.31 73.75 28.79"/><polygon points="235.11 29.43 241.6 25.71 235.14 21.95 235.11 29.43"/></svg>