<?xml version="1.0" encoding="utf-8"?>
<!-- Generator: Adobe Illustrator 21.0.0, SVG Export Plug-In . SVG Version: 6.00 Build 0)  -->
<svg version="1.1" id="Layer_1" xmlns="http://www.w3.org/2000/svg" xmlns:xlink="http://www.w3.org/1999/xlink" x="0px" y="0px"
	 viewBox="0 0 239.6 239.6" style="enable-background:new 0 0 239.6 239.6;" xml:space="preserve">
<style type="text/css">
	.st0{fill:#FF9E16;}
</style>
<path class="st0" d="M226,133.6c-4.2,5.3-9.6,9.7-15.6,12.8c3.2-4.1,4.5-9.1,4.4-14.7c-20.4,0-36.5,13.3-28.9,39
	c4.3-0.3,6.8-3.3,9.1-6.5c0.2,3.7-0.7,7.7-3.5,12.4l1.8,4.2c-5.3,3.8-13,11-19.2,8.9c-16.5-19.3-42.2-24.6-75.9-4
	c2.4-5.9,4-10.3,9.3-15c-6.2-0.2-17.8,1.4-26.8,6.4c0.2-24.7,4-49.3,11.3-72.9c-16,27.6-23.8,59.8-31.8,98.6
	c-8.5-36.7-14.9-62.4-9.1-104.4c-17,3-36,14.3-51.1,23.8c18.2-24.2,57.4-50.2,74.5-55.2C66.2,80.4,60.9,99,59.7,114.2l7.7-0.7
	c-3.1,6.8-6.3,22.5-6.3,35.7c2.3-14,9.3-32.6,16.4-44.3l-9.4,0.8c5.3-18.9,18-37.5,29-43.8c4.8-1.5,9.7-2.2,14.7-1.9
	c-1.3,7.9-7.7,48.1-4.5,66.7c0.1-19.9,9.6-75.6,17.3-89.9c12.3,10.9,14.4,15.9,19,25.6c24.3,1.3,43.2,12.8,60.9,26.4
	c-0.4,1.4-1.4,2.5-2.8,3.1c4.7,1.7,16.3,8.3,20.8,12.1c5.9,5,13.4,11.6,17.1,16l-7,11l-3.2-9.5l6.4-1.1l-8.5-0.1l3.5,11.6L226,133.6
	z M191.7,104.3l-6.5-8.2L167.6,91l10.3,8.5l6.1-0.3L191.7,104.3z"/>
</svg>
